<?xml version="1.0"?>
<svg xmlns="http://www.w3.org/2000/svg" viewBox="0 0 64 64" width="512px" height="512px"><g><g id="virus-covid19-corona-mask-protect"><path d="M27,22H26a1,1,0,0,0,0,2h1a1,1,0,0,0,0-2Z" data-original="#000000" class="active-path" data-old_color="#000000" fill="#BB133E"/><path d="M38,22H37a1,1,0,0,0,0,2h1a1,1,0,0,0,0-2Z" data-original="#000000" class="active-path" data-old_color="#000000" fill="#BB133E"/><path d="M47,44H40a1,1,0,0,1-1-1V40.26a15.115,15.115,0,0,0,6.7-7.19,16.823,16.823,0,0,0,5.68,8.51l4,3.2A.961.961,0,0,0,56,45a.935.935,0,0,0,.43-.1A1,1,0,0,0,57,44V18a9.014,9.014,0,0,0-9-9H44.67A14.988,14.988,0,0,0,17,17v4H16a3.009,3.009,0,0,0-3,3v3a3.009,3.009,0,0,0,3,3h1.31A15.126,15.126,0,0,0,25,40.26V43a1,1,0,0,1-1,1H17A13.012,13.012,0,0,0,4,57v4a1,1,0,0,0,1,1H59a1,1,0,0,0,1-1V57A13.012,13.012,0,0,0,47,44Zm1-33a7.008,7.008,0,0,1,7,7V41.92l-2.38-1.9A14.9,14.9,0,0,1,47.09,30H48a3.009,3.009,0,0,0,3-3V24a3.009,3.009,0,0,0-3-3H47V17a14.857,14.857,0,0,0-1.26-6ZM46.96,28c.03-.33.04-.66.04-1V23h1a1,1,0,0,1,1,1v3a1,1,0,0,1-1,1ZM16,28a1,1,0,0,1-1-1V24a1,1,0,0,1,1-1h1v4c0,.34.01.67.04,1Zm29-1a13.023,13.023,0,0,1-3,8.28V28.36l3-3.6ZM19,17a13,13,0,0,1,26,0v1H39.14a8.992,8.992,0,0,1-7.33-3.78l-2-2.8a.991.991,0,0,0-1.62,0l-2.01,2.81A9.024,9.024,0,0,1,19,17.99Zm3,18.28A12.983,12.983,0,0,1,19,27V24.76l3,3.6ZM19,21.64V20a11.01,11.01,0,0,0,8.8-4.61L29,13.72l1.18,1.66A11.028,11.028,0,0,0,39.14,20H45v1.64l-4.38,5.25-8.4-1.87a1.087,1.087,0,0,0-.44,0l-8.4,1.87Zm5,15.6V28.8l8-1.78,8,1.78v8.44a13.378,13.378,0,0,1-2.43,1.51,13.082,13.082,0,0,1-11.14,0A13.378,13.378,0,0,1,24,37.24ZM24,46a3.009,3.009,0,0,0,3-3V41.14a14.965,14.965,0,0,0,10,0V43a3.009,3.009,0,0,0,3,3h3.9c-.75,3.94-5.79,7-11.9,7s-11.15-3.06-11.9-7ZM58,60H47V57a1,1,0,0,0-2,0v3H19V57a1,1,0,0,0-2,0v3H6V57A11.007,11.007,0,0,1,17,46h1.07c.71,5.05,6.68,9,13.93,9s13.22-3.95,13.93-9H47A11.007,11.007,0,0,1,58,57Z" data-original="#000000" class="active-path" data-old_color="#000000" fill="#BB133E"/></g></g> </svg>
