<?xml version="1.0"?>
<svg xmlns="http://www.w3.org/2000/svg" viewBox="0 0 96 96" width="512px" height="512px"><g><g id="_02-shop" data-name="02-shop"><path d="M95.846,30.9l-8-28A4,4,0,0,0,84,0H12A4,4,0,0,0,8.154,2.9l-8,28c-.012.041-.01.084-.021.125a3.865,3.865,0,0,0-.091.563c-.011.105-.029.208-.032.313,0,.033-.01.064-.01.1v4a11.962,11.962,0,0,0,4,8.919V92a4,4,0,0,0,4,4H88a4,4,0,0,0,4-4V44.642A11.753,11.753,0,0,0,95.8,36V33.178A3.965,3.965,0,0,0,95.846,30.9ZM84,40.205H76a4.2,4.2,0,0,1-4.054-3.147c.031-.349.054-.7.054-1.058h16.2A4.209,4.209,0,0,1,84,40.205ZM8,36H24a4,4,0,0,1-4,4H12A4,4,0,0,1,8,36Zm55.388-8H32.612L35.469,8H60.531ZM64,36a4,4,0,0,1-4,4H36a4,4,0,0,1-4-4Zm22.7-8H71.469L68.612,8H80.983ZM15.017,8H27.388L24.531,28H9.3ZM24,88V60H40V88Zm60,0H48V56a4,4,0,0,0-4-4H20a4,4,0,0,0-4,4V88H12V48h8a11.941,11.941,0,0,0,8-3.081A11.941,11.941,0,0,0,36,48H60a11.941,11.941,0,0,0,8.152-3.22A11.734,11.734,0,0,0,76,47.8h8Z" data-original="#000000" class="active-path" data-old_color="#000000" fill="#BB133E"/><path d="M56,52a4,4,0,0,0-4,4V72a4,4,0,0,0,4,4H76a4,4,0,0,0,4-4V56a4,4,0,0,0-4-4ZM72,68H60V60H72Z" data-original="#000000" class="active-path" data-old_color="#000000" fill="#BB133E"/></g></g> </svg>
